<svg width="108" height="79" viewBox="0 0 108 79" fill="none" xmlns="http://www.w3.org/2000/svg">
<path d="M36.5496 62.1703L36.5429 62.1665L36.5361 62.1628L1.80587 43.617C1.4617 43.4333 1.45126 42.9437 1.78727 42.7454L34.7851 23.2721C34.7858 23.2717 34.7866 23.2712 34.7874 23.2708C40.1642 20.1747 47.1775 18.5709 54.172 18.5023C61.1686 18.4337 68.0916 19.9017 73.2899 22.8916C76.8415 24.9389 79.1056 27.4119 80.1654 29.9869C81.2208 32.5512 81.1009 35.2594 79.8084 37.8437C79.3255 38.8092 79.8996 40.1236 81.0891 40.1963L104.798 41.6448C105.297 41.6752 105.448 42.3378 105.011 42.5808L53.1299 71.4435C52.9763 71.5289 52.7892 71.5275 52.637 71.4397L39.8035 64.0396L39.8028 64.0392L36.5496 62.1703Z" fill="url(#paint0_linear_73_2400)" stroke="#3F2BB4"/>
<path fill-rule="evenodd" clip-rule="evenodd" d="M104.368 42.386C105.035 42.006 105.863 42.4874 105.863 43.2548V46.3283C105.863 46.6815 105.677 47.0084 105.373 47.1885L53.2505 78.0887C52.9356 78.2754 52.5437 78.2751 52.2291 78.0877L1.48846 47.881C1.18558 47.7006 1 47.3742 1 47.0217V43.9498C1 43.1818 1.82979 42.7004 2.49645 43.0817L52.2439 71.5326C52.551 71.7082 52.9282 71.7085 53.2356 71.5333L104.368 42.386Z" fill="white"/>
<path d="M52.2439 71.5326L51.9957 71.9666L52.2439 71.5326ZM53.2356 71.5333L52.9879 71.0989L53.2356 71.5333ZM1.48846 47.881L1.2327 48.3106L1.48846 47.881ZM53.2505 78.0887L53.5055 78.5188L53.2505 78.0887ZM52.2291 78.0877L51.9733 78.5174L52.2291 78.0877ZM104.368 42.386L104.121 41.9517L104.368 42.386ZM105.373 47.1885L105.628 47.6186L105.373 47.1885ZM106.363 46.3283V43.2548H105.363V46.3283H106.363ZM53.5055 78.5188L105.628 47.6186L105.118 46.7584L52.9956 77.6586L53.5055 78.5188ZM52.4848 77.6581L1.74423 47.4513L1.2327 48.3106L51.9733 78.5174L52.4848 77.6581ZM1.5 47.0217V43.9498H0.5V47.0217H1.5ZM2.24823 43.5157L51.9957 71.9666L52.4921 71.0986L2.74468 42.6477L2.24823 43.5157ZM104.121 41.9517L52.9879 71.0989L53.4832 71.9677L104.616 42.8204L104.121 41.9517ZM51.9957 71.9666C52.4564 72.2301 53.0221 72.2305 53.4832 71.9677L52.9879 71.0989C52.8342 71.1865 52.6457 71.1864 52.4921 71.0986L51.9957 71.9666ZM1.5 43.9498C1.5 43.5658 1.9149 43.3251 2.24823 43.5157L2.74468 42.6477C1.74469 42.0758 0.5 42.7978 0.5 43.9498H1.5ZM1.74423 47.4513C1.59279 47.3612 1.5 47.1979 1.5 47.0217H0.5C0.5 47.5504 0.778371 48.0401 1.2327 48.3106L1.74423 47.4513ZM52.9956 77.6586C52.8381 77.7519 52.6421 77.7518 52.4848 77.6581L51.9733 78.5174C52.4453 78.7983 53.033 78.7989 53.5055 78.5188L52.9956 77.6586ZM106.363 43.2548C106.363 42.1038 105.121 41.3816 104.121 41.9517L104.616 42.8204C104.949 42.6304 105.363 42.8711 105.363 43.2548H106.363ZM105.363 46.3283C105.363 46.5049 105.27 46.6684 105.118 46.7584L105.628 47.6186C106.084 47.3485 106.363 46.858 106.363 46.3283H105.363Z" fill="#3F2BB4"/>
<path d="M36.5496 44.1703L36.5429 44.1665L36.5361 44.1628L1.80587 25.617C1.4617 25.4333 1.45126 24.9437 1.78727 24.7454L34.7851 5.27212C34.7858 5.27168 34.7866 5.27123 34.7874 5.27079C40.1642 2.17469 47.1775 0.570869 54.172 0.502296C61.1686 0.433702 68.0916 1.90172 73.2899 4.89157C76.8415 6.93888 79.1056 9.41193 80.1654 11.9869C81.2208 14.5512 81.1009 17.2594 79.8084 19.8437C79.3255 20.8092 79.8996 22.1236 81.0891 22.1963L104.798 23.6448C105.297 23.6752 105.448 24.3378 105.011 24.5808L53.1299 53.4435C52.9763 53.5289 52.7892 53.5275 52.637 53.4397L39.8035 46.0396L39.8028 46.0392L36.5496 44.1703Z" fill="url(#paint1_linear_73_2400)" stroke="#3F2BB4"/>
<path fill-rule="evenodd" clip-rule="evenodd" d="M104.368 24.386C105.035 24.006 105.863 24.4874 105.863 25.2548V28.3283C105.863 28.6815 105.677 29.0084 105.373 29.1885L53.2505 60.0887C52.9356 60.2754 52.5437 60.2751 52.2291 60.0877L1.48846 29.881C1.18558 29.7006 1 29.3742 1 29.0217V25.9498C1 25.1818 1.82979 24.7004 2.49645 25.0817L52.2439 53.5326C52.551 53.7082 52.9282 53.7085 53.2356 53.5333L104.368 24.386Z" fill="white"/>
<path d="M52.2439 53.5326L51.9957 53.9666L52.2439 53.5326ZM53.2356 53.5333L52.9879 53.0989L53.2356 53.5333ZM1.48846 29.881L1.2327 30.3106L1.48846 29.881ZM53.2505 60.0887L53.5055 60.5188L53.2505 60.0887ZM52.2291 60.0877L51.9733 60.5174L52.2291 60.0877ZM104.368 24.386L104.121 23.9517L104.368 24.386ZM105.373 29.1885L105.628 29.6186L105.373 29.1885ZM106.363 28.3283V25.2548H105.363V28.3283H106.363ZM53.5055 60.5188L105.628 29.6186L105.118 28.7584L52.9956 59.6586L53.5055 60.5188ZM52.4848 59.6581L1.74423 29.4513L1.2327 30.3106L51.9733 60.5174L52.4848 59.6581ZM1.5 29.0217V25.9498H0.5V29.0217H1.5ZM2.24823 25.5157L51.9957 53.9666L52.4921 53.0986L2.74468 24.6477L2.24823 25.5157ZM104.121 23.9517L52.9879 53.0989L53.4832 53.9677L104.616 24.8204L104.121 23.9517ZM51.9957 53.9666C52.4564 54.2301 53.0221 54.2305 53.4832 53.9677L52.9879 53.0989C52.8342 53.1865 52.6457 53.1864 52.4921 53.0986L51.9957 53.9666ZM1.5 25.9498C1.5 25.5658 1.9149 25.3251 2.24823 25.5157L2.74468 24.6477C1.74469 24.0758 0.5 24.7978 0.5 25.9498H1.5ZM1.74423 29.4513C1.59279 29.3612 1.5 29.1979 1.5 29.0217H0.5C0.5 29.5504 0.778371 30.0401 1.2327 30.3106L1.74423 29.4513ZM52.9956 59.6586C52.8381 59.7519 52.6421 59.7518 52.4848 59.6581L51.9733 60.5174C52.4453 60.7983 53.033 60.7989 53.5055 60.5188L52.9956 59.6586ZM106.363 25.2548C106.363 24.1038 105.121 23.3816 104.121 23.9517L104.616 24.8204C104.949 24.6304 105.363 24.8711 105.363 25.2548H106.363ZM105.363 28.3283C105.363 28.5049 105.27 28.6684 105.118 28.7584L105.628 29.6186C106.084 29.3485 106.363 28.858 106.363 28.3283H105.363Z" fill="#3F2BB4"/>
<defs>
<linearGradient id="paint0_linear_73_2400" x1="53.622" y1="18" x2="53.622" y2="72.1558" gradientUnits="userSpaceOnUse">
<stop stop-color="#F9CA96"/>
<stop offset="0.447917" stop-color="#F5569F"/>
<stop offset="1" stop-color="#5F24B1"/>
</linearGradient>
<linearGradient id="paint1_linear_73_2400" x1="53.622" y1="0" x2="53.622" y2="54.1558" gradientUnits="userSpaceOnUse">
<stop stop-color="#F9CA96"/>
<stop offset="0.447917" stop-color="#F5569F"/>
<stop offset="1" stop-color="#5F24B1"/>
</linearGradient>
</defs>
</svg>
